<svg width="20" height="23" viewBox="0 0 20 23" fill="none" xmlns="http://www.w3.org/2000/svg">
<path d="M19.8047 11.1172C19.7109 13.0078 19.2422 14.5 18.3984 15.5938C17.5547 16.6875 16.4258 17.2344 15.0117 17.2344C13.5508 17.2344 12.6133 16.5781 12.1992 15.2656C11.7773 15.9297 11.293 16.4258 10.7461 16.7539C10.207 17.0742 9.64844 17.2344 9.07031 17.2344C7.96094 17.2344 7.12109 16.7812 6.55078 15.875C5.98047 14.9688 5.76953 13.7148 5.91797 12.1133C6.03516 10.8242 6.32812 9.67578 6.79688 8.66797C7.27344 7.65234 7.88281 6.85547 8.625 6.27734C9.375 5.69922 10.1602 5.41016 10.9805 5.41016C11.6133 5.41016 12.1797 5.49609 12.6797 5.66797C13.1797 5.83203 13.7422 6.16016 14.3672 6.65234L13.7578 13.1445C13.6094 14.9492 14.1094 15.8516 15.2578 15.8516C16.1406 15.8516 16.8555 15.4141 17.4023 14.5391C17.9492 13.6641 18.2461 12.5234 18.293 11.1172C18.4414 8.07812 17.875 5.76172 16.5938 4.16797C15.3203 2.57422 13.3789 1.77734 10.7695 1.77734C9.19922 1.77734 7.80469 2.16797 6.58594 2.94922C5.36719 3.72266 4.40625 4.84375 3.70312 6.3125C3 7.78125 2.60547 9.47656 2.51953 11.3984C2.42578 13.3359 2.66016 15.0195 3.22266 16.4492C3.78516 17.8711 4.64062 18.957 5.78906 19.707C6.94531 20.4648 8.33984 20.8438 9.97266 20.8438C10.6758 20.8438 11.3789 20.7578 12.082 20.5859C12.793 20.4141 13.3828 20.1914 13.8516 19.918L14.2852 21.2656C13.8008 21.5703 13.1562 21.8203 12.3516 22.0156C11.5547 22.2109 10.7461 22.3086 9.92578 22.3086C7.97266 22.3086 6.29297 21.8672 4.88672 20.9844C3.48047 20.1094 2.42578 18.8438 1.72266 17.1875C1.02734 15.5391 0.726562 13.6094 0.820312 11.3984C0.914062 9.25 1.39453 7.32031 2.26172 5.60938C3.12891 3.89062 4.30469 2.56641 5.78906 1.63672C7.27344 0.699219 8.94922 0.230469 10.8164 0.230469C12.7617 0.230469 14.4297 0.667969 15.8203 1.54297C17.2109 2.41797 18.2461 3.67969 18.9258 5.32812C19.6055 6.97656 19.8984 8.90625 19.8047 11.1172ZM7.78125 12.1133C7.67188 13.2227 7.77344 14.0742 8.08594 14.668C8.40625 15.2617 8.91016 15.5586 9.59766 15.5586C10.0664 15.5586 10.5156 15.3594 10.9453 14.9609C11.3828 14.5625 11.7422 13.9922 12.0234 13.25L12.0352 13.1445L12.5742 7.25C12.1367 7.02344 11.668 6.91016 11.168 6.91016C10.2539 6.91016 9.49609 7.375 8.89453 8.30469C8.30078 9.23438 7.92969 10.5039 7.78125 12.1133Z" fill="#401010"/>
</svg>
