<svg width="180" height="180" viewBox="0 0 180 180" fill="none" xmlns="http://www.w3.org/2000/svg">
<path d="M47.488 48.424C46.048 44.68 44.896 41.704 44.896 40.456C44.896 39.784 45.088 39.016 46.144 38.536C47.008 38.152 48.736 38.056 49.792 38.056C50.464 38.056 50.752 37.864 50.752 37.384C50.752 36.904 49.888 36.712 48.16 36.712C44.512 36.712 40.192 37 39.232 37C38.08 37 32.608 36.712 28 36.712C26.464 36.712 25.504 36.808 25.504 37.384C25.504 37.768 25.696 38.056 26.272 38.056C26.848 38.056 28.48 38.056 29.92 38.44C33.28 39.4 34.72 40.456 36.832 45.832L60.352 104.68C62.176 109.288 62.656 110.632 63.808 110.632C64.768 110.632 65.152 109.096 67.84 103.336C70.048 98.632 74.368 88.264 80.224 74.248C85.12 62.44 89.92 50.92 90.976 48.232C93.568 41.704 95.008 40.072 96.256 39.208C98.08 38.056 100.192 38.056 100.864 38.056C101.632 38.056 102.016 37.864 102.016 37.384C102.016 36.904 101.44 36.712 100.384 36.712C97.6 36.712 93.472 37 92.896 37C91.744 37 87.328 36.712 83.488 36.712C81.952 36.712 81.376 36.904 81.376 37.48C81.376 37.96 81.856 38.056 82.432 38.056C83.488 38.056 84.928 38.056 86.08 38.44C87.04 38.92 87.328 39.88 87.328 40.648C87.328 41.512 86.944 42.856 86.464 44.296C84.352 51.208 71.488 84.712 65.92 97.576L47.488 48.424Z" fill="#6C1616"/>
<path d="M137.688 145.128C137.688 146.76 137.016 147.816 135.768 148.488C133.272 149.928 128.28 150.504 124.824 150.504C115.992 150.504 107.256 147.624 99.672 140.232C96.312 136.968 89.496 127.176 89.496 113.64C89.496 102.408 93.432 93.672 99 89.256C106.296 83.496 113.496 82.92 119.544 82.92C131.928 82.92 139.704 87.048 142.104 90.696C143.544 93 144.024 95.688 144.12 97.032C144.216 97.896 144.312 98.472 144.792 98.472C145.464 98.472 145.656 97.992 145.656 96.456C145.656 86.856 146.328 84.168 146.328 82.824C146.328 82.44 146.136 82.056 145.176 81.96C142.776 81.864 139.416 81.48 137.4 81C135.576 80.616 128.76 79.368 122.712 79.368C115.32 79.368 105.816 80.04 97.176 85.416C88.632 90.792 81.144 101.64 81.144 117C81.144 129 86.712 139.272 92.568 144.36C103.224 153.672 116.856 154.632 124.152 154.632C129.72 154.632 138.36 153.576 144.504 150.312C145.656 149.64 145.752 149.448 145.752 145.128V134.376C145.752 130.344 145.752 127.464 145.944 124.392C146.136 121.032 146.904 119.4 149.496 118.92C150.648 118.728 151.224 118.632 151.896 118.632C152.28 118.632 152.664 118.44 152.664 118.056C152.664 117.48 152.184 117.288 151.128 117.288C148.248 117.288 142.2 117.576 141.72 117.576C141.24 117.576 135.192 117.288 130.872 117.288C129.816 117.288 129.336 117.48 129.336 118.056C129.336 118.44 129.72 118.632 130.104 118.632C130.968 118.632 132.6 118.728 133.368 118.92C137.208 119.976 137.688 121.032 137.688 128.808V145.128Z" fill="#6C1616"/>
<circle cx="90" cy="90" r="89.5" stroke="white"/>
</svg>
