<svg width="200" height="200" viewBox="0 0 200 200" fill="none" xmlns="http://www.w3.org/2000/svg">
<circle cx="100" cy="100" r="100" fill="#6C1616"/>
<path d="M151.688 157.128C151.688 158.76 151.016 159.816 149.768 160.488C147.272 161.928 142.28 162.504 138.824 162.504C129.992 162.504 121.256 159.624 113.672 152.232C110.312 148.968 103.496 139.176 103.496 125.64C103.496 114.408 107.432 105.672 113 101.256C120.296 95.496 127.496 94.92 133.544 94.92C145.928 94.92 153.704 99.048 156.104 102.696C157.544 105 158.024 107.688 158.12 109.032C158.216 109.896 158.312 110.472 158.792 110.472C159.464 110.472 159.656 109.992 159.656 108.456C159.656 98.856 160.328 96.168 160.328 94.824C160.328 94.44 160.136 94.056 159.176 93.96C156.776 93.864 153.416 93.48 151.4 93C149.576 92.616 142.76 91.368 136.712 91.368C129.32 91.368 119.816 92.04 111.176 97.416C102.632 102.792 95.144 113.64 95.144 129C95.144 141 100.712 151.272 106.568 156.36C117.224 165.672 130.856 166.632 138.152 166.632C143.72 166.632 152.36 165.576 158.504 162.312C159.656 161.64 159.752 161.448 159.752 157.128V146.376C159.752 142.344 159.752 139.464 159.944 136.392C160.136 133.032 160.904 131.4 163.496 130.92C164.648 130.728 165.224 130.632 165.896 130.632C166.28 130.632 166.664 130.44 166.664 130.056C166.664 129.48 166.184 129.288 165.128 129.288C162.248 129.288 156.2 129.576 155.72 129.576C155.24 129.576 149.192 129.288 144.872 129.288C143.816 129.288 143.336 129.48 143.336 130.056C143.336 130.44 143.72 130.632 144.104 130.632C144.968 130.632 146.6 130.728 147.368 130.92C151.208 131.976 151.688 133.032 151.688 140.808V157.128Z" fill="white"/>
<path d="M54.488 56.424C53.048 52.68 51.896 49.704 51.896 48.456C51.896 47.784 52.088 47.016 53.144 46.536C54.008 46.152 55.736 46.056 56.792 46.056C57.464 46.056 57.752 45.864 57.752 45.384C57.752 44.904 56.888 44.712 55.16 44.712C51.512 44.712 47.192 45 46.232 45C45.08 45 39.608 44.712 35 44.712C33.464 44.712 32.504 44.808 32.504 45.384C32.504 45.768 32.696 46.056 33.272 46.056C33.848 46.056 35.48 46.056 36.92 46.44C40.28 47.4 41.72 48.456 43.832 53.832L67.352 112.68C69.176 117.288 69.656 118.632 70.808 118.632C71.768 118.632 72.152 117.096 74.84 111.336C77.048 106.632 81.368 96.264 87.224 82.248C92.12 70.44 96.92 58.92 97.976 56.232C100.568 49.704 102.008 48.072 103.256 47.208C105.08 46.056 107.192 46.056 107.864 46.056C108.632 46.056 109.016 45.864 109.016 45.384C109.016 44.904 108.44 44.712 107.384 44.712C104.6 44.712 100.472 45 99.896 45C98.744 45 94.328 44.712 90.488 44.712C88.952 44.712 88.376 44.904 88.376 45.48C88.376 45.96 88.856 46.056 89.432 46.056C90.488 46.056 91.928 46.056 93.08 46.44C94.04 46.92 94.328 47.88 94.328 48.648C94.328 49.512 93.944 50.856 93.464 52.296C91.352 59.208 78.488 92.712 72.92 105.576L54.488 56.424Z" fill="white"/>
</svg>
